<svg xmlns="http://www.w3.org/2000/svg" viewBox="0 0 573 567" role="img" aria-label="Champions League starball graphic"><path d="M 456,470 L 442,477 L 408,486 L 406,484 L 409,462 L 408,443 L 386,472 L 365,492 L 319,492 L 304,490 L 336,513 L 324,522 L 309,527 L 342,525 L 384,513 L 424,494 Z" fill="#F7FAFF"/><path d="M 136,101 L 106,132 L 87,159 L 75,181 L 66,204 L 59,232 L 71,211 L 83,197 L 101,226 L 102,198 L 109,168 L 151,133 L 129,136 L 120,135 L 123,125 Z" fill="#F7FAFF"/><path d="M 338,46 L 318,46 L 283,51 L 256,61 L 224,60 L 193,63 L 207,85 L 184,103 L 159,127 L 211,108 L 218,108 L 223,113 L 236,134 L 254,156 L 245,207 L 242,241 L 170,272 L 144,273 L 108,279 L 104,271 L 100,233 L 87,257 L 77,286 L 54,300 L 61,316 L 70,327 L 71,361 L 79,392 L 90,363 L 97,354 L 138,383 L 123,350 L 116,324 L 141,296 L 168,273 L 174,273 L 208,287 L 233,294 L 243,300 L 256,387 L 222,418 L 200,432 L 178,418 L 143,389 L 158,424 L 170,445 L 167,449 L 146,454 L 122,454 L 150,471 L 176,480 L 196,484 L 212,501 L 225,511 L 252,524 L 247,511 L 246,489 L 297,487 L 249,464 L 245,459 L 257,387 L 287,333 L 299,317 L 311,318 L 392,339 L 410,359 L 443,387 L 440,397 L 412,438 L 416,438 L 443,428 L 473,410 L 483,414 L 496,426 L 504,405 L 509,376 L 521,359 L 530,341 L 539,312 L 515,329 L 509,327 L 504,263 L 473,337 L 469,341 L 433,343 L 393,339 L 335,278 L 331,271 L 332,266 L 387,196 L 438,186 L 459,185 L 489,229 L 504,258 L 502,226 L 496,189 L 502,188 L 525,197 L 504,164 L 478,139 L 466,116 L 447,92 L 445,108 L 440,115 L 393,96 L 366,91 L 409,126 L 426,144 L 426,148 L 407,174 L 385,197 L 354,204 L 303,221 L 293,221 L 276,196 L 255,158 L 257,145 L 264,122 L 274,101 L 280,94 L 321,89 L 359,89 L 340,80 L 304,69 L 312,60 Z" fill="#F7FAFF"/></svg>